<svg width="32" height="32" viewBox="0 0 32 32" fill="none" xmlns="http://www.w3.org/2000/svg">
<circle cx="16" cy="16" r="16" fill="#1877F2"/>
<path d="M30 15.5C30 7.49192 23.5081 1 15.5 1C7.49192 1 1 7.49192 1 15.5C1 22.7373 6.30247 28.7361 13.2344 29.8238V19.6914H9.55273V15.5H13.2344V12.3055C13.2344 8.67141 15.3992 6.66406 18.7113 6.66406C20.2977 6.66406 21.957 6.94727 21.957 6.94727V10.5156H20.1287C18.3274 10.5156 17.7656 11.6334 17.7656 12.7801V15.5H21.7871L21.1442 19.6914H17.7656V29.8238C24.6975 28.7361 30 22.7374 30 15.5Z" fill="#1877F2"/>
<path d="M21.1442 19.6914L21.7871 15.5H17.7656V12.7801C17.7656 11.6333 18.3274 10.5156 20.1287 10.5156H21.957V6.94727C21.957 6.94727 20.2977 6.66406 18.7112 6.66406C15.3992 6.66406 13.2344 8.67141 13.2344 12.3055V15.5H9.55273V19.6914H13.2344V29.8238C13.9839 29.9413 14.7414 30.0002 15.5 30C16.2586 30.0002 17.0161 29.9413 17.7656 29.8238V19.6914H21.1442Z" fill="white"/>
</svg>
